<mxfile host="app.diagrams.net" modified="2022-04-24T12:55:30.186Z" agent="5.0 (Windows NT 10.0; Win64; x64) AppleWebKit/537.36 (KHTML, like Gecko) Chrome/100.0.4896.127 Safari/537.36" etag="0yW7iPfL63P-TdvrPLhe" version="17.2.0" type="github">
  <diagram id="qxTewepecbMGROagp25g" name="Page-1">
    <mxGraphModel dx="868" dy="450" grid="1" gridSize="10" guides="1" tooltips="1" connect="1" arrows="1" fold="1" page="1" pageScale="1" pageWidth="850" pageHeight="1100" math="0" shadow="0">
      <root>
        <mxCell id="0" />
        <mxCell id="1" parent="0" />
        <mxCell id="fKZK5orikYkKwXgs9bPa-4" style="edgeStyle=orthogonalEdgeStyle;rounded=0;orthogonalLoop=1;jettySize=auto;html=1;exitX=1;exitY=0.5;exitDx=0;exitDy=0;entryX=0;entryY=0.5;entryDx=0;entryDy=0;" edge="1" parent="1" source="fKZK5orikYkKwXgs9bPa-2" target="fKZK5orikYkKwXgs9bPa-3">
          <mxGeometry relative="1" as="geometry" />
        </mxCell>
        <mxCell id="fKZK5orikYkKwXgs9bPa-2" value="Leads" style="rounded=0;whiteSpace=wrap;html=1;" vertex="1" parent="1">
          <mxGeometry x="40" y="120" width="120" height="160" as="geometry" />
        </mxCell>
        <mxCell id="fKZK5orikYkKwXgs9bPa-3" value="Shift and Transport Allowance Reporting Application" style="ellipse;whiteSpace=wrap;html=1;aspect=fixed;" vertex="1" parent="1">
          <mxGeometry x="270" y="125" width="150" height="150" as="geometry" />
        </mxCell>
        <mxCell id="fKZK5orikYkKwXgs9bPa-7" style="edgeStyle=orthogonalEdgeStyle;rounded=0;orthogonalLoop=1;jettySize=auto;html=1;exitX=0.5;exitY=0;exitDx=0;exitDy=0;" edge="1" parent="1" source="fKZK5orikYkKwXgs9bPa-5" target="fKZK5orikYkKwXgs9bPa-6">
          <mxGeometry relative="1" as="geometry">
            <Array as="points">
              <mxPoint x="705" y="80" />
            </Array>
          </mxGeometry>
        </mxCell>
        <mxCell id="fKZK5orikYkKwXgs9bPa-5" value="Allowance Recrds" style="shape=partialRectangle;whiteSpace=wrap;html=1;left=0;right=0;fillColor=none;" vertex="1" parent="1">
          <mxGeometry x="630" y="350" width="150" height="50" as="geometry" />
        </mxCell>
        <mxCell id="fKZK5orikYkKwXgs9bPa-18" style="edgeStyle=orthogonalEdgeStyle;rounded=0;orthogonalLoop=1;jettySize=auto;html=1;entryX=0.5;entryY=0;entryDx=0;entryDy=0;startArrow=classic;startFill=1;endArrow=classic;endFill=1;" edge="1" parent="1" source="fKZK5orikYkKwXgs9bPa-6" target="fKZK5orikYkKwXgs9bPa-3">
          <mxGeometry relative="1" as="geometry" />
        </mxCell>
        <mxCell id="fKZK5orikYkKwXgs9bPa-6" value="View Allowance" style="ellipse;whiteSpace=wrap;html=1;aspect=fixed;" vertex="1" parent="1">
          <mxGeometry x="470" y="34" width="90" height="90" as="geometry" />
        </mxCell>
        <mxCell id="fKZK5orikYkKwXgs9bPa-10" style="edgeStyle=orthogonalEdgeStyle;rounded=0;orthogonalLoop=1;jettySize=auto;html=1;entryX=0.32;entryY=-0.04;entryDx=0;entryDy=0;entryPerimeter=0;startArrow=classic;startFill=1;" edge="1" parent="1" source="fKZK5orikYkKwXgs9bPa-9" target="fKZK5orikYkKwXgs9bPa-5">
          <mxGeometry relative="1" as="geometry">
            <Array as="points">
              <mxPoint x="678" y="200" />
            </Array>
          </mxGeometry>
        </mxCell>
        <mxCell id="fKZK5orikYkKwXgs9bPa-19" style="edgeStyle=orthogonalEdgeStyle;rounded=0;orthogonalLoop=1;jettySize=auto;html=1;entryX=1;entryY=0.5;entryDx=0;entryDy=0;startArrow=classic;startFill=1;endArrow=classic;endFill=1;" edge="1" parent="1" source="fKZK5orikYkKwXgs9bPa-9" target="fKZK5orikYkKwXgs9bPa-3">
          <mxGeometry relative="1" as="geometry" />
        </mxCell>
        <mxCell id="fKZK5orikYkKwXgs9bPa-9" value="Modify Allowance" style="ellipse;whiteSpace=wrap;html=1;aspect=fixed;" vertex="1" parent="1">
          <mxGeometry x="470" y="152.5" width="95" height="95" as="geometry" />
        </mxCell>
        <mxCell id="fKZK5orikYkKwXgs9bPa-13" style="edgeStyle=orthogonalEdgeStyle;rounded=0;orthogonalLoop=1;jettySize=auto;html=1;entryX=0.187;entryY=-0.02;entryDx=0;entryDy=0;entryPerimeter=0;startArrow=classic;startFill=1;" edge="1" parent="1" source="fKZK5orikYkKwXgs9bPa-12" target="fKZK5orikYkKwXgs9bPa-5">
          <mxGeometry relative="1" as="geometry">
            <Array as="points">
              <mxPoint x="658" y="320" />
            </Array>
          </mxGeometry>
        </mxCell>
        <mxCell id="fKZK5orikYkKwXgs9bPa-20" style="edgeStyle=orthogonalEdgeStyle;rounded=0;orthogonalLoop=1;jettySize=auto;html=1;entryX=0.8;entryY=0.9;entryDx=0;entryDy=0;entryPerimeter=0;startArrow=classic;startFill=1;endArrow=classic;endFill=1;" edge="1" parent="1" source="fKZK5orikYkKwXgs9bPa-12" target="fKZK5orikYkKwXgs9bPa-3">
          <mxGeometry relative="1" as="geometry">
            <Array as="points">
              <mxPoint x="440" y="320" />
              <mxPoint x="440" y="260" />
            </Array>
          </mxGeometry>
        </mxCell>
        <mxCell id="fKZK5orikYkKwXgs9bPa-12" value="Approve Allowance" style="ellipse;whiteSpace=wrap;html=1;aspect=fixed;" vertex="1" parent="1">
          <mxGeometry x="470" y="270" width="95" height="95" as="geometry" />
        </mxCell>
        <mxCell id="fKZK5orikYkKwXgs9bPa-23" style="edgeStyle=orthogonalEdgeStyle;rounded=0;orthogonalLoop=1;jettySize=auto;html=1;startArrow=classic;startFill=1;endArrow=none;endFill=0;" edge="1" parent="1">
          <mxGeometry relative="1" as="geometry">
            <mxPoint x="345" y="276" as="targetPoint" />
            <mxPoint x="345" y="346" as="sourcePoint" />
          </mxGeometry>
        </mxCell>
        <mxCell id="fKZK5orikYkKwXgs9bPa-21" value="Export Allowance" style="ellipse;whiteSpace=wrap;html=1;aspect=fixed;" vertex="1" parent="1">
          <mxGeometry x="297.5" y="346" width="95" height="95" as="geometry" />
        </mxCell>
      </root>
    </mxGraphModel>
  </diagram>
</mxfile>
